<svg version="1.1" id="Layer_1" xmlns="http://www.w3.org/2000/svg" xmlns:xlink="http://www.w3.org/1999/xlink" x="0px" y="0px"
 width="100%" viewBox="0 0 2076 1658" enable-background="new 0 0 2076 1658" xml:space="preserve">
<style>
	.bg-color { fill: #05052B; }
	.yellow-color { fill: #FDBC58; }
	.orange-color { fill: #FD914D; }
</style>
<path class="bg-color" opacity="1.000000" stroke="none"
	d="
M0,0
L2076,0
L2076,1658
L0,1658
L0,0
z"/>
<path class="yellow-color" opacity="1.000000" stroke="none"
	d="
M1319.458496,930.517456
	C1254.826782,894.187012 1236.760132,807.047363 1281.587402,748.516663
	C1305.627686,717.127380 1337.552856,700.558228 1377.098755,698.861938
	C1387.657227,698.408936 1396.024780,702.522278 1401.281006,711.809021
	C1406.168213,720.444153 1406.224121,729.364075 1401.010132,737.937073
	C1396.592651,745.200500 1390.067871,749.618774 1381.465820,750.093079
	C1364.398926,751.033997 1348.737915,755.631226 1335.192505,766.493225
	C1312.979126,784.306091 1302.977417,814.345215 1311.272949,842.069641
	C1320.052368,871.410950 1339.948364,888.929688 1370.338135,894.066223
	C1374.097046,894.701660 1377.952759,894.842957 1381.772705,895.023743
	C1397.503418,895.768250 1408.558228,906.909302 1408.192627,921.737366
	C1407.843262,935.906372 1395.752075,946.878723 1380.448608,946.756897
	C1358.866699,946.585144 1338.588745,941.390381 1319.458496,930.517456
z">
<animate attributeName="opacity" values="0;1;0" dur="3s" repeatCount="indefinite" begin="0s" />
</path>
<path class="yellow-color" opacity="1.000000" stroke="none"
	d="
M1010.997681,1106.866943
	C985.549988,1120.889038 972.149475,1142.033203 971.149353,1170.802124
	C970.624878,1185.888306 959.819336,1197.084351 945.459900,1197.189453
	C931.306519,1197.293091 919.890015,1186.490723 919.674255,1171.528687
	C919.202820,1138.841675 930.600586,1110.388428 953.057190,1086.858032
	C1000.264954,1037.393066 1073.358643,1033.764893 1125.191284,1078.471558
	C1150.680786,1100.456665 1164.313721,1128.949463 1166.928223,1162.590698
	C1167.198975,1166.073486 1167.654419,1169.593994 1167.415771,1173.055054
	C1166.471069,1186.756836 1155.061157,1197.276733 1141.535156,1197.182739
	C1127.655273,1197.086304 1116.413940,1186.369629 1116.019653,1172.272095
	C1115.443604,1151.681763 1108.493530,1133.877319 1093.697021,1119.407959
	C1071.862305,1098.056030 1040.046265,1093.213013 1010.997681,1106.866943
z">
<animate attributeName="opacity" values="0;1;0" dur="3s" repeatCount="indefinite" begin="1s" />
</path>
<path class="yellow-color" opacity="1.000000" stroke="none"
	d="
M820.200928,826.601318
	C823.401611,879.418945 794.686096,927.282837 747.119263,948.394531
	C731.123840,955.493774 714.316345,959.319519 696.664673,958.955994
	C682.413086,958.662354 671.445557,947.912476 671.064819,933.595520
	C670.706421,920.119080 681.103882,908.556763 695.064331,907.883667
	C714.548401,906.944336 732.229492,901.585449 746.355164,887.668762
	C767.309082,867.024780 774.377075,842.051758 765.653381,813.960632
	C757.018555,786.155762 737.366272,769.533081 708.691223,763.990295
	C703.493347,762.985535 698.080627,763.130676 692.849426,762.253479
	C679.137695,759.954102 670.089661,748.440552 671.078918,734.932678
	C672.043396,721.762939 683.138916,711.213379 696.889099,711.340393
	C705.007812,711.415466 713.255554,712.126282 721.203369,713.741455
	C775.962585,724.869934 816.005554,770.527710 820.200928,826.601318
z">
<animate attributeName="opacity" values="0;1;0" dur="3s" repeatCount="indefinite" begin="2s" />
</path>
<path class="yellow-color" opacity="1.000000" stroke="none"
	d="
M1148.776855,526.809448
	C1129.959961,578.219238 1085.194702,610.832886 1032.609863,611.743103
	C976.143677,612.720642 925.282227,574.125427 911.371643,519.218994
	C908.978516,509.773163 907.889282,499.869751 907.344849,490.113678
	C906.607117,476.891876 917.199463,465.316284 930.013000,464.067352
	C943.979065,462.706085 955.776855,471.589813 958.242615,485.251038
	C959.920044,494.545258 960.471191,504.263763 963.639893,513.028320
	C975.193237,544.984924 1008.453003,564.580688 1040.845215,559.472107
	C1076.205200,553.895447 1101.540771,526.317078 1103.299561,491.215393
	C1103.705566,483.111359 1104.163086,475.249115 1110.200317,468.921448
	C1117.960205,460.788452 1128.466675,458.306030 1138.998413,462.312531
	C1148.368530,465.877136 1154.789185,475.358307 1155.056763,486.136169
	C1155.399292,499.930450 1153.154907,513.336792 1148.776855,526.809448
z">
<animate attributeName="opacity" values="0;1;0" dur="3s" repeatCount="indefinite" begin="3s" />
</path>
<path class="yellow-color" opacity="1.000000" stroke="none"
	d="
M964.339111,662.765259
	C961.446716,659.289429 958.914185,655.968994 956.078491,652.931702
	C946.605896,642.785767 946.740845,627.981873 956.514709,618.362610
	C966.242126,608.789001 981.346985,608.757141 991.110474,618.519104
	C1008.593018,635.998962 1019.836914,656.964722 1023.741455,681.333679
	C1030.343750,722.539368 1018.787537,758.444336 988.873230,787.467346
	C963.053101,812.518372 931.382263,822.742004 895.533264,819.379150
	C867.958740,816.792358 844.412598,805.351318 824.620422,786.090393
	C817.250488,778.918274 814.912292,770.243286 818.094055,760.466370
	C821.275391,750.690796 828.294556,745.004883 838.447144,743.587830
	C846.377930,742.480835 853.183350,745.210266 858.919434,750.728027
	C870.196716,761.576050 883.529724,768.172119 899.087280,770.248901
	C940.211243,775.738586 977.337158,742.264954 976.338867,700.657776
	C976.010132,686.956848 972.098267,674.454895 964.339111,662.765259
z">
<animate attributeName="opacity" values="0;1;0" dur="3s" repeatCount="indefinite" begin="4s" />
</path>
<path class="yellow-color" opacity="1.000000" stroke="none"
	d="
M1063.552979,1007.487061
	C1037.529785,949.283325 1058.315552,884.412476 1112.551880,853.669128
	C1157.339111,828.281921 1215.932861,835.966736 1252.605957,872.037964
	C1261.802124,881.083191 1262.409302,895.971863 1253.974854,905.606323
	C1245.382080,915.421692 1230.790894,917.154907 1220.682617,908.815369
	C1209.881470,899.904053 1198.626099,892.417419 1184.619263,889.371216
	C1156.455200,883.246033 1125.728516,896.438171 1111.236450,921.353516
	C1095.803955,947.885742 1098.956177,980.772461 1119.008667,1002.595703
	C1121.260254,1005.046082 1123.738892,1007.356262 1125.607544,1010.077881
	C1132.758423,1020.493164 1130.861938,1034.573486 1121.422363,1042.710083
	C1111.754028,1051.043823 1097.980225,1050.682129 1088.252441,1041.579590
	C1077.928711,1031.919312 1069.713013,1020.665649 1063.552979,1007.487061
z">
<animate attributeName="opacity" values="0;1;0" dur="3s" repeatCount="indefinite" begin="5s" />
</path>
<path class="yellow-color" opacity="1.000000" stroke="none"
	d="
M1192.701660,760.912964
	C1200.565796,755.628235 1208.568848,751.064880 1215.469482,745.203796
	C1226.560425,735.783691 1241.184570,735.469727 1251.040649,745.451721
	C1260.389404,754.919922 1260.126587,770.649170 1249.784058,780.501343
	C1214.087158,814.505249 1172.102173,824.774231 1125.837158,808.323059
	C1081.991333,792.732117 1055.744385,760.293396 1048.995972,713.871704
	C1043.567627,676.530762 1054.633789,643.749634 1080.361572,616.070862
	C1089.750732,605.969788 1104.343140,605.315857 1115.054443,614.277954
	C1124.566162,622.236328 1126.031738,637.214539 1117.640625,647.654175
	C1111.030518,655.878174 1104.334229,663.981079 1101.044922,674.146484
	C1092.283203,701.224854 1096.887695,725.795349 1117.171143,746.026672
	C1137.415771,766.219299 1161.890503,771.024353 1189.050415,762.215210
	C1190.158203,761.855896 1191.247803,761.440918 1192.701660,760.912964
z">
<animate attributeName="opacity" values="0;1;0" dur="3s" repeatCount="indefinite" begin="6s" />
</path>
<path class="yellow-color" opacity="1.000000" stroke="none"
	d="
M1026.377808,935.601501
	C1034.056396,976.896912 1023.394958,1012.456665 995.207153,1042.867188
	C985.900574,1052.907715 970.649048,1053.614990 960.624634,1044.555786
	C950.456299,1035.366455 949.447815,1020.346680 958.804138,1010.094360
	C970.265015,997.535828 978.162781,983.372986 979.399475,966.196228
	C981.299622,939.806519 971.690735,918.334961 949.759399,903.456604
	C928.804749,889.240845 905.924561,887.180725 882.787048,897.667603
	C874.915649,901.235352 867.887146,906.989258 861.072266,912.486450
	C850.306641,921.170654 835.513855,920.393372 826.027710,909.961426
	C817.599731,900.693176 818.284485,885.580505 827.546387,876.439270
	C881.608582,823.081970 972.007935,833.793762 1011.580566,898.282654
	C1018.598633,909.719482 1023.597656,922.002502 1026.377808,935.601501
z">
<animate attributeName="opacity" values="0;1;0" dur="3s" repeatCount="indefinite" begin="7s" />
</path>
<path class="orange-color" opacity="1.000000" stroke="none"
	d="
M694.350830,801.634399
	C708.076538,812.420166 715.223511,825.966919 712.330505,843.220764
	C709.256287,861.555786 697.340515,872.861511 680.385498,878.929810
	C663.337891,885.031067 646.562500,883.752991 630.897400,874.486145
	C599.654419,856.003906 600.206909,815.246826 632.224304,798.087219
	C653.142456,786.876343 674.106628,788.164612 694.350830,801.634399
z"/>
<path class="orange-color" opacity="1.000000" stroke="none"
	d="
M1075.755981,1246.757568
	C1057.337036,1265.313599 1030.291138,1264.675049 1013.144409,1245.541870
	C992.842041,1222.887451 995.088257,1184.530029 1017.831970,1165.494873
	C1036.573364,1149.809326 1062.107910,1152.160278 1077.778564,1171.014160
	C1095.989136,1192.923950 1095.226807,1225.260986 1075.755981,1246.757568
z"/>
<path class="orange-color" opacity="1.000000" stroke="none"
	d="
M1077.901367,451.070984
	C1077.696533,466.257172 1073.195923,479.386719 1063.034546,490.221771
	C1047.012573,507.305847 1022.374329,508.505188 1004.618958,493.236420
	C980.941284,472.874939 979.859314,432.600647 1002.409851,411.012177
	C1022.201904,392.064453 1051.698853,395.520905 1067.783081,418.677979
	C1074.448730,428.274689 1077.325928,439.076660 1077.901367,451.070984
z"/>
<path class="orange-color" opacity="1.000000" stroke="none"
	d="
M1443.912109,862.937561
	C1424.060913,872.421814 1404.844727,871.723938 1386.385864,860.562561
	C1360.593994,844.967285 1357.370972,812.999695 1379.188843,792.207581
	C1399.113892,773.219299 1435.432007,773.126892 1455.497925,792.013489
	C1478.454224,813.620605 1473.118042,847.200378 1443.912109,862.937561
z"/>
<path class="orange-color" opacity="1.000000" stroke="none"
	d="
M1183.049683,1023.924133
	C1163.559937,1015.135437 1151.376709,1000.997803 1148.650879,979.777527
	C1145.331421,953.934387 1164.927979,932.923340 1190.990356,934.061646
	C1215.497192,935.131958 1237.956909,955.183777 1241.802979,979.426697
	C1246.727417,1010.466370 1221.701904,1033.661499 1191.028442,1026.444946
	C1188.445312,1025.837280 1185.947998,1024.864502 1183.049683,1023.924133
z"/>
<path class="orange-color" opacity="1.000000" stroke="none"
	d="
M1168.343506,716.694336
	C1150.242798,709.154907 1140.720459,692.276245 1143.502197,673.137695
	C1147.095825,648.414551 1166.878174,628.619446 1190.799438,625.810303
	C1217.316284,622.696289 1237.862915,641.644592 1236.834717,668.264954
	C1235.693237,697.819458 1206.921021,722.697510 1177.862549,719.139282
	C1174.761230,718.759460 1171.751587,717.630859 1168.343506,716.694336
z"/>
<path class="orange-color" opacity="1.000000" stroke="none"
	d="
M895.858337,1028.808350
	C870.409302,1037.054321 846.465515,1025.469727 840.658813,1002.281616
	C837.274353,988.766235 839.863770,976.053040 847.223755,964.479614
	C857.717896,947.977966 872.524353,938.117371 892.529541,937.879822
	C918.969055,937.565796 937.549744,959.823547 932.554749,985.842163
	C928.531006,1006.801270 916.215637,1021.080750 895.858337,1028.808350
z"/>
<path class="orange-color" opacity="1.000000" stroke="none"
	d="
M887.336792,724.272461
	C859.905273,722.658020 836.575623,698.870972 836.005920,672.353577
	C835.499390,648.777283 851.542725,631.591858 875.074524,630.503662
	C906.582397,629.046509 934.156006,659.781250 929.256287,690.896790
	C926.052307,711.243591 909.905640,724.239136 887.336792,724.272461
z"/>
<path class="orange-color" opacity="1.000000" stroke="none"
	d="
M1535.723877,473.721649
	C1520.203247,484.043060 1504.684082,494.366425 1489.160156,504.682983
	C1487.513306,505.777435 1485.839722,506.831543 1483.521851,508.328613
	C1480.573364,503.958740 1477.758911,499.787476 1474.627319,495.145996
	C1499.176758,478.610962 1523.299072,462.363678 1548.012573,445.718170
	C1551.487183,450.905701 1554.969482,455.736298 1557.966675,460.851105
	C1558.674561,462.059052 1558.127197,464.370270 1557.520142,465.925293
	C1549.404785,486.710693 1541.170288,507.449432 1532.987305,528.208435
	C1532.295776,529.962585 1531.761719,531.778809 1531.154541,533.566162
	C1531.543335,533.883911 1531.932129,534.201660 1532.320923,534.519348
	C1549.490723,522.984070 1566.660400,511.448730 1584.309814,499.591125
	C1587.316284,504.055542 1590.070801,508.145782 1593.249146,512.865295
	C1568.864380,529.286194 1544.749023,545.525635 1519.854370,562.289917
	C1516.284180,556.901672 1512.646362,551.803467 1509.535522,546.401794
	C1508.873901,545.252869 1509.897461,542.907104 1510.539917,541.267578
	C1519.168091,519.248230 1527.866577,497.256439 1536.746582,474.665100
	C1536.883057,473.809143 1536.820435,473.545868 1536.757812,473.282562
	C1536.413208,473.428894 1536.068604,473.575256 1535.723877,473.721649
M1531.480225,534.701233
	C1531.559937,534.528198 1531.639648,534.355164 1531.719360,534.182129
	C1531.529663,534.223083 1531.339966,534.264038 1531.480225,534.701233
z"/>
<path class="orange-color" opacity="1.000000" stroke="none"
	d="
M1204.685303,237.454437
	C1206.468384,232.373840 1208.290771,227.711670 1209.699829,222.927780
	C1210.637085,219.746033 1212.069336,219.153336 1215.147339,220.259232
	C1230.348267,225.720566 1245.675049,230.835342 1260.839722,236.393448
	C1273.355103,240.980545 1280.102905,251.728867 1279.250366,264.789856
	C1278.445801,277.115723 1270.378662,286.187073 1257.411499,289.374542
	C1256.455933,289.609436 1255.532715,289.976044 1253.894653,290.509277
	C1256.562256,303.455078 1259.216431,316.335907 1262.098633,330.323181
	C1256.085449,328.236267 1251.051880,326.696045 1246.226440,324.662079
	C1245.090088,324.183044 1244.290161,322.122070 1243.956421,320.648224
	C1241.641968,310.426147 1239.547729,300.154144 1237.224121,289.934235
	C1236.895630,288.489777 1236.003662,286.460876 1234.866455,286.026245
	C1226.194580,282.711761 1217.396851,279.726074 1208.051392,276.431091
	C1204.957520,285.175995 1201.721191,293.345520 1199.231079,301.736481
	C1197.793091,306.582520 1195.892090,308.058075 1191.205688,305.645782
	C1188.457031,304.230896 1185.377808,303.458038 1181.989624,302.230591
	C1189.610352,280.472473 1197.079590,259.146790 1204.685303,237.454437
M1261.656128,268.984009
	C1266.004883,260.045349 1263.850342,254.448792 1254.513672,251.054901
	C1244.815430,247.529556 1235.008667,244.301605 1225.326416,240.734314
	C1222.216431,239.588516 1220.474121,239.755768 1219.450439,243.338806
	C1218.081421,248.130539 1216.349487,252.831985 1214.528564,257.476196
	C1213.449829,260.227753 1213.852783,261.659149 1216.855957,262.659729
	C1227.275757,266.131317 1237.608032,269.864410 1247.996582,273.431366
	C1253.252319,275.236023 1257.850342,274.442810 1261.656128,268.984009
z"/>
<path class="orange-color" opacity="1.000000" stroke="none"
	d="
M689.370789,384.751801
	C676.509521,365.287872 663.858032,346.116211 651.247742,327.006897
	C651.645569,326.318756 651.783813,325.742523 652.145142,325.503357
	C666.728699,315.850159 681.178284,305.981934 695.986206,296.684601
	C706.366150,290.167389 719.931274,291.890656 728.938965,299.996643
	C737.713684,307.892914 740.142090,320.710266 735.033264,332.094482
	C734.568726,333.129547 734.183899,334.200378 733.617126,335.616791
	C745.747559,341.403107 757.694275,347.101807 770.562378,353.239990
	C765.279114,356.705994 760.981201,359.804108 756.380310,362.355988
	C755.168945,363.027863 752.845093,362.396393 751.331604,361.706390
	C741.939392,357.424469 732.673584,352.863922 723.256348,348.639801
	C721.716003,347.948883 719.185364,347.740082 717.874939,348.546906
	C710.228577,353.254822 702.809570,358.331970 694.788513,363.631500
	C700.809998,372.845123 706.679626,381.826416 712.876038,391.307678
	C708.456482,394.239441 704.362671,396.955139 699.570618,400.134003
	C696.108032,394.903748 692.844299,389.973907 689.370789,384.751801
M708.990234,308.330963
	C703.417725,311.588959 697.758484,314.708893 692.295227,318.140747
	C685.879700,322.170776 679.634399,326.471710 672.996033,330.866486
	C677.475830,337.611542 681.565308,343.768890 685.898499,350.293274
	C696.463989,343.297119 706.618286,336.710632 716.616943,329.895935
	C721.804504,326.360291 723.322632,322.054596 721.780701,317.039032
	C720.325378,312.305420 715.275330,308.596527 708.990234,308.330963
z"/>
<path class="yellow-color" opacity="1.000000" stroke="none"
	d="
M486.051147,1032.017578
	C481.835907,1035.934082 477.879761,1039.610474 473.923645,1043.286865
	C474.092285,1043.708740 474.260925,1044.130615 474.429565,1044.552368
	C478.420837,1044.286133 482.420898,1044.112793 486.401733,1043.735962
	C498.497742,1042.591431 510.599823,1041.486450 522.669312,1040.102173
	C526.200439,1039.697144 528.065674,1040.521118 529.437988,1043.995972
	C534.153992,1055.937744 535.379700,1051.646484 525.810852,1060.687012
	C516.732971,1069.263550 507.412842,1077.583496 498.220673,1086.039551
	C497.056824,1087.110229 496.022552,1088.321777 495.288605,1090.766479
	C500.590027,1090.379150 505.898010,1090.064697 511.191528,1089.589233
	C521.802002,1088.636353 532.440979,1087.867798 542.992554,1086.457642
	C547.232849,1085.890991 549.113953,1087.219360 550.310608,1090.956299
	C551.101440,1093.426147 552.375000,1095.741333 553.811218,1098.979736
	C544.611572,1099.914185 536.258972,1100.808716 527.896729,1101.602051
	C511.821564,1103.127197 495.728027,1104.473511 479.672882,1106.183350
	C476.216095,1106.551392 474.544159,1105.680298 473.276245,1102.493408
	C469.036774,1091.837646 468.015991,1095.284546 476.493256,1087.335571
	C486.211029,1078.223389 496.107635,1069.301392 505.972900,1060.347900
	C507.300781,1059.142700 508.899261,1058.235718 510.372467,1057.190674
	C510.079285,1056.627075 509.786102,1056.063477 509.492920,1055.499878
	C508.187012,1055.499878 506.871399,1055.395508 505.576660,1055.515747
	C490.328430,1056.933105 475.072571,1058.282837 459.844818,1059.896729
	C455.943695,1060.310059 453.799347,1059.358643 452.318573,1055.489380
	C448.628235,1045.846680 447.577484,1048.783691 455.406891,1041.527588
	C471.285461,1026.811401 487.296112,1012.237793 503.265320,997.619568
	C504.330811,996.644165 505.505280,995.787781 507.215607,994.400024
	C509.023621,998.457886 510.922485,1001.956055 512.044617,1005.687805
	C512.396606,1006.858337 510.991730,1009.009888 509.824036,1010.111450
	C502.072174,1017.424622 494.166107,1024.574463 486.051147,1032.017578
z"/>
<path class="orange-color" opacity="1.000000" stroke="none"
	d="
M1000.519531,233.885681
	C1008.604004,233.124222 1016.243896,232.525330 1023.852661,231.654663
	C1026.757324,231.322281 1027.891235,232.104385 1028.552734,235.089066
	C1033.550781,257.636658 1018.101868,281.986694 995.460205,286.948090
	C976.856445,291.024658 958.788879,284.306305 948.262451,269.397797
	C937.953369,254.796875 937.545471,234.538452 947.246216,218.917603
	C960.511414,197.557053 992.092102,192.065887 1011.791748,207.705582
	C1012.289856,208.101013 1012.676758,208.636459 1013.455688,209.471085
	C1010.659485,212.857727 1008.136475,216.361984 1005.077942,219.310776
	C1004.287842,220.072479 1001.493286,219.627640 1000.167480,218.828232
	C984.311218,209.267731 963.193726,216.315979 957.538208,233.193924
	C952.756104,247.465073 959.370422,264.045441 972.135010,269.784454
	C985.600403,275.838531 1002.999023,270.692383 1009.833801,258.455780
	C1011.330139,255.776871 1012.128174,252.707947 1013.662415,248.748627
	C1007.956116,249.245438 1003.388916,249.662308 998.818115,250.035553
	C994.385071,250.397568 989.948425,250.714737 985.078735,251.084610
	C984.604492,245.862198 984.171753,241.097321 983.670410,235.576324
	C989.297363,235.014587 994.679871,234.477249 1000.519531,233.885681
z"/>
<path class="orange-color" opacity="1.000000" stroke="none"
	d="
M834.148804,307.357849
	C842.205994,304.133850 849.909424,301.057922 858.292786,297.710480
	C860.277222,302.628815 862.112549,307.177521 864.078735,312.050720
	C862.664185,312.829193 861.602905,313.561829 860.436096,314.033112
	C842.217407,321.391327 823.969116,328.676758 805.773499,336.091461
	C803.127075,337.169861 801.659668,337.124969 800.453979,334.096954
	C790.347961,308.716675 780.099609,283.393066 769.909302,258.046265
	C769.669556,257.449921 769.606934,256.782379 769.298218,255.434448
	C789.780396,247.193695 810.225403,238.967880 831.218018,230.521774
	C833.297363,235.663803 835.137085,240.213104 837.203979,245.324249
	C821.300720,251.742783 805.910400,257.954285 789.854065,264.434570
	C791.962891,269.750977 793.942688,274.742249 796.125916,280.246277
	C808.152832,275.431885 819.688599,270.814087 832.010376,265.881653
	C834.012207,270.850006 835.889893,275.510376 837.964294,280.658966
	C825.937866,285.525970 814.421448,290.186584 802.105652,295.170685
	C804.843994,301.930023 807.332581,308.386169 810.185974,314.676910
	C810.503845,315.377716 813.097595,315.683777 814.292908,315.242981
	C820.852661,312.823944 827.305542,310.115204 834.148804,307.357849
z"/>
<path class="orange-color" opacity="1.000000" stroke="none"
	d="
M503.682068,550.190186
	C493.925751,544.159973 484.480072,538.318726 474.570404,532.190552
	C477.492096,527.483032 480.083771,523.307190 483.001678,518.605774
	C493.367188,524.979431 503.365997,531.127625 513.823120,537.557617
	C521.367798,525.368408 528.692261,513.534912 536.233337,501.351532
	C525.881348,494.926422 515.894165,488.727753 505.472626,482.259491
	C508.382477,477.573151 510.982391,473.386017 513.909119,468.672516
	C539.065308,484.216003 563.900818,499.561371 589.177429,515.179321
	C586.271851,519.862732 583.682861,524.035889 580.731995,528.792358
	C570.339539,522.382812 560.365295,516.231201 549.924194,509.791595
	C542.418335,521.915466 535.177795,533.610657 527.539917,545.947815
	C537.732361,552.319641 547.672241,558.533508 558.204102,565.117554
	C555.387329,569.669128 552.741211,573.944824 549.802856,578.692871
	C534.222839,569.063354 519.107788,559.721252 503.682068,550.190186
z"/>
<path class="orange-color" opacity="1.000000" stroke="none"
	d="
M1576.500488,670.501526
	C1574.329346,672.543213 1572.413330,674.339417 1569.753540,676.833008
	C1567.675659,671.522400 1565.651733,667.026611 1564.267822,662.341614
	C1563.917358,661.154724 1565.204590,658.730164 1566.425293,657.956177
	C1574.034302,653.131653 1573.828003,647.364868 1570.177856,639.909668
	C1566.164185,631.711487 1563.231934,622.971924 1560.043579,614.388367
	C1558.962524,611.478027 1557.452515,610.311646 1554.236084,610.274414
	C1543.400391,610.149353 1543.397705,610.015503 1539.424072,599.714478
	C1538.889160,598.327698 1538.423706,596.914124 1537.661987,594.769165
	C1539.557007,594.598022 1541.095093,594.322632 1542.629761,594.340576
	C1571.109619,594.674805 1599.588623,595.103088 1628.069214,595.330383
	C1631.588745,595.358521 1633.332764,596.427734 1634.609741,599.799805
	C1638.866577,611.041321 1639.007812,610.980286 1630.310791,619.258850
	C1612.455688,636.254456 1594.606934,653.256653 1576.500488,670.501526
M1606.860962,619.355835
	C1609.411865,617.089172 1611.962769,614.822510 1614.513672,612.555847
	C1614.244263,612.082825 1613.974854,611.609741 1613.705322,611.136719
	C1601.265259,611.136719 1588.825195,611.136719 1575.848267,611.136719
	C1579.442017,620.280090 1582.875977,629.016785 1586.627930,638.562561
	C1593.624268,631.922119 1599.986938,625.883118 1606.860962,619.355835
z"/>
<path class="orange-color" opacity="1.000000" stroke="none"
	d="
M1090.678955,225.531342
	C1094.788452,218.059250 1098.816406,210.960281 1102.591919,203.729401
	C1103.929932,201.166718 1105.469849,200.186951 1108.448730,200.418808
	C1121.354614,201.423325 1121.374512,201.327469 1124.837524,213.804459
	C1131.690308,238.494019 1138.529785,263.187195 1145.364746,287.881683
	C1145.799438,289.452393 1146.145508,291.047607 1146.774292,293.618835
	C1141.112915,293.011536 1136.042358,292.771179 1131.144409,291.723511
	C1129.957397,291.469574 1128.742188,288.613464 1128.564819,286.850800
	C1127.829590,279.545227 1124.134521,276.589478 1116.731567,276.259705
	C1106.947754,275.823975 1097.203125,274.331085 1087.467285,273.091949
	C1084.424438,272.704620 1082.147583,273.167572 1081.175171,276.309021
	C1078.626465,284.542938 1073.249390,286.887878 1065.236450,284.315338
	C1063.570068,283.780334 1061.687378,283.919464 1058.773315,283.639069
	C1069.613281,263.894165 1080.055786,244.873322 1090.678955,225.531342
M1109.920288,224.481842
	C1103.876587,235.237778 1097.832886,245.993729 1091.309204,257.603760
	C1101.852417,258.796265 1111.217896,259.855591 1121.555908,261.024902
	C1117.698486,248.074966 1114.163086,236.206268 1109.920288,224.481842
z"/>
<path class="orange-color" opacity="1.000000" stroke="none"
	d="
M1352.999023,365.995667
	C1343.355957,359.978271 1333.958496,354.270233 1324.760864,348.256287
	C1321.892700,346.380890 1319.930420,346.596100 1317.247314,348.571594
	C1308.890869,354.724457 1308.804688,354.617615 1299.864502,349.013733
	C1298.211060,347.977264 1296.597900,346.876740 1294.557861,345.537811
	C1296.163574,344.227753 1297.253662,343.243103 1298.436768,342.387238
	C1321.378174,325.792694 1344.378540,309.278839 1367.225464,292.555145
	C1370.401001,290.230621 1372.655884,289.934113 1376.039307,292.144745
	C1385.771606,298.503662 1385.876709,298.347717 1383.870605,310.008728
	C1379.439209,335.767853 1375.010498,361.527466 1370.557495,387.282837
	C1370.307739,388.726837 1369.848755,390.134705 1369.296631,392.310638
	C1364.846436,389.545197 1360.718506,387.165100 1356.840088,384.430939
	C1355.947144,383.801392 1355.504028,381.937866 1355.565308,380.676788
	C1355.685791,378.199982 1356.082886,375.683075 1356.771362,373.299988
	C1357.798096,369.745667 1356.509644,367.569000 1352.999023,365.995667
M1365.492432,323.116272
	C1365.921875,320.138306 1366.351196,317.160309 1366.999634,312.663422
	C1355.616577,320.900421 1345.627319,328.128784 1334.934937,335.866028
	C1343.770508,341.365326 1351.725586,346.316559 1360.420044,351.727966
	C1362.155762,341.865143 1363.732056,332.908295 1365.492432,323.116272
z"/>
<path class="orange-color" opacity="1.000000" stroke="none"
	d="
M621.782471,454.848450
	C617.377380,458.396576 614.933838,461.975159 618.820496,467.173279
	C622.582153,472.204315 621.562683,476.432709 616.572632,480.224274
	C614.523193,481.781433 613.173096,484.259064 610.958008,486.992859
	C609.592773,484.426788 608.844727,483.203674 608.265686,481.905182
	C596.668701,455.898132 585.141541,429.859711 573.441956,403.898956
	C572.075134,400.865997 572.244141,398.974060 574.657166,396.513855
	C583.228271,387.775208 583.124329,387.661591 594.462585,392.182465
	C618.416748,401.733582 642.368103,411.291687 666.316467,420.857300
	C667.816589,421.456482 669.280884,422.145294 672.486694,423.546051
	C668.284668,427.280792 665.005554,430.563416 661.305969,433.271759
	C660.109375,434.147766 657.613586,434.056549 656.046204,433.487518
	C645.877380,429.795868 645.906250,429.711395 638.297058,437.637634
	C632.874207,443.286469 627.455444,448.939148 621.782471,454.848450
M600.191833,425.373199
	C603.093689,431.815399 605.995483,438.257599 608.096313,442.921539
	C615.354797,436.479980 622.602295,430.048187 630.220398,423.287537
	C617.674316,418.301941 605.760925,413.567749 593.456970,408.678375
	C593.576416,409.910767 593.528259,410.259521 593.649048,410.534027
	C595.723938,415.251617 597.819702,419.960022 600.191833,425.373199
z"/>
<path class="orange-color" opacity="1.000000" stroke="none"
	d="
M525.980469,628.414429
	C524.045532,640.636414 520.717712,651.890564 513.282898,661.532532
	C508.576324,667.636414 503.308350,670.671997 495.698303,671.613342
	C494.995697,667.444458 494.153778,663.256348 493.684052,659.026917
	C493.581726,658.105469 494.679504,656.918884 495.450348,656.056091
	C498.259796,652.911316 502.043823,650.286255 503.834473,646.661865
	C506.749756,640.761292 508.848358,634.342773 510.429810,627.930298
	C511.972198,621.676147 509.701691,618.338928 503.745209,615.741943
	C498.284668,613.361267 495.475006,614.024963 491.342255,619.497131
	C487.534210,624.539307 484.265198,629.986267 480.514526,635.074829
	C477.759827,638.812134 474.899323,642.556458 471.578857,645.774414
	C464.100250,653.021973 455.179749,654.070007 445.822754,649.299988
	C437.579529,645.097717 433.592651,637.302795 434.923218,627.159790
	C436.219177,617.281006 439.249817,607.974792 445.707153,600.147034
	C452.297607,592.157959 461.651428,589.890442 470.076172,594.385498
	C468.612915,598.318665 467.212036,602.371765 465.548859,606.314331
	C465.212036,607.112915 463.787445,608.090454 463.029785,607.967285
	C458.959869,607.305969 457.157959,609.866821 455.880402,612.868652
	C453.864960,617.604126 451.993408,622.415527 450.366669,627.296692
	C449.276855,630.566895 449.774261,633.479309 453.420471,635.240784
	C457.062714,637.000366 459.902283,636.132263 462.180115,633.086731
	C464.470856,630.023987 466.554840,626.807434 468.786163,623.699036
	C472.375793,618.698364 475.690338,613.454102 479.693878,608.806152
	C488.745605,598.297424 497.851471,596.024902 509.481171,600.773193
	C521.467834,605.667236 526.744995,614.351013 525.980469,628.414429
z"/>
<path class="orange-color" opacity="1.000000" stroke="none"
	d="
M1415.374268,389.328705
	C1427.852905,376.113525 1440.109985,363.174744 1452.386230,350.254272
	C1452.938232,349.673340 1453.664795,349.258392 1454.703125,348.466278
	C1458.242310,351.843781 1461.695923,355.139557 1465.450073,358.722168
	C1464.328125,360.045776 1463.452881,361.202454 1462.453003,362.238861
	C1452.157471,372.910156 1441.868286,383.587830 1431.525146,394.212769
	C1418.527588,407.564423 1418.467896,414.324371 1431.616455,427.390228
	C1434.792603,430.546326 1438.204712,433.550201 1441.865479,436.113861
	C1447.840820,440.298340 1453.116211,440.208069 1458.856689,435.683960
	C1463.154175,432.297272 1467.105103,428.427002 1470.943848,424.510925
	C1480.950806,414.302124 1490.811157,403.949768 1501.346802,393.014404
	C1504.689697,397.231842 1507.740723,401.081238 1511.075562,405.288544
	C1509.181519,407.289001 1506.386353,410.329010 1503.497070,413.276642
	C1493.353760,423.625122 1483.652832,434.469391 1472.899902,444.142944
	C1457.930420,457.609924 1443.641602,457.549438 1427.926880,445.046722
	C1424.164307,442.053162 1420.616211,438.698456 1417.405640,435.118591
	C1403.768677,419.912994 1403.163452,406.118256 1415.374268,389.328705
z"/>
<path class="yellow-color" opacity="1.000000" stroke="none"
	d="
M783.896729,1361.850464
	C781.713867,1362.179810 779.942871,1362.426025 777.620239,1362.748901
	C778.257141,1373.930176 778.877014,1384.811401 779.499817,1395.745361
	C770.431885,1395.000122 765.566956,1390.292969 765.057495,1382.103027
	C764.623413,1375.125122 764.354065,1368.134399 763.753784,1361.171509
	C763.614075,1359.551147 762.859375,1357.268677 761.650330,1356.574463
	C755.051147,1352.783325 748.221741,1349.393066 740.962891,1345.599243
	C736.531189,1353.952759 732.355957,1361.822754 727.867371,1370.283447
	C723.769287,1368.142090 720.036499,1366.191528 716.216370,1364.195312
	C716.546143,1363.056885 716.626953,1362.391235 716.916504,1361.834106
	C727.434326,1341.593384 738.006714,1321.380981 748.462952,1301.108521
	C749.813110,1298.490845 751.066345,1297.793091 753.850952,1299.281128
	C765.745178,1305.636841 777.805725,1311.682129 789.680847,1318.072510
	C798.852112,1323.007935 803.577087,1332.096436 802.398621,1341.633789
	C801.120911,1351.973999 795.058411,1358.721436 783.896729,1361.850464
M785.854126,1346.393555
	C790.332214,1340.568359 790.903870,1335.366943 786.194214,1332.451660
	C776.655212,1326.546631 766.596497,1321.481201 756.330017,1315.837646
	C753.063232,1322.082031 750.247253,1327.464722 747.096802,1333.486694
	C757.565674,1338.760132 767.370850,1344.002563 777.493408,1348.536255
	C779.460632,1349.417114 782.664368,1347.537354 785.854126,1346.393555
z"/>
<path class="yellow-color" opacity="1.000000" stroke="none"
	d="
M1622.314697,1036.923340
	C1616.141602,1037.950439 1610.373901,1038.820068 1604.667114,1039.987793
	C1603.226929,1040.282471 1601.276489,1041.220581 1600.762817,1042.390747
	C1597.702515,1049.362427 1594.994751,1056.488770 1591.956055,1064.095825
	C1599.385498,1067.067871 1606.236816,1070.034424 1613.257080,1072.525024
	C1616.958740,1073.838379 1618.038330,1075.500732 1616.144409,1079.081909
	C1614.911987,1081.412476 1614.097412,1083.964233 1612.788696,1087.168579
	C1589.576904,1077.937500 1566.645386,1068.817871 1543.238159,1059.509155
	C1546.011719,1052.543945 1548.496582,1046.220215 1551.046021,1039.922607
	C1554.232910,1032.050415 1557.110474,1024.025635 1560.781860,1016.383911
	C1565.296875,1006.986450 1574.868896,1002.151917 1584.616821,1003.505920
	C1595.125977,1004.965576 1602.205200,1011.774963 1604.395630,1022.496521
	C1604.591187,1023.453552 1604.943115,1024.378662 1605.375366,1025.833862
	C1616.380005,1024.071533 1627.285278,1022.325134 1638.353027,1020.552612
	C1637.022827,1032.255859 1634.540161,1034.755737 1622.314697,1036.923340
M1582.451904,1050.966797
	C1585.049438,1044.480103 1587.639526,1037.990601 1590.246460,1031.507690
	C1592.939819,1024.809326 1591.259277,1020.196594 1585.147461,1017.567566
	C1579.570679,1015.168579 1574.983276,1017.318787 1572.167847,1023.920715
	C1569.688721,1029.734375 1567.442383,1035.647583 1565.111572,1041.524170
	C1563.793701,1044.846680 1562.512817,1048.183716 1561.075073,1051.874146
	C1567.437256,1054.413452 1573.065308,1056.659790 1579.170288,1059.096313
	C1580.322388,1056.256226 1581.246582,1053.978027 1582.451904,1050.966797
z"/>
<path class="yellow-color" opacity="1.000000" stroke="none"
	d="
M1219.714111,1422.054443
	C1202.681152,1418.824219 1192.148438,1409.050049 1188.511353,1392.562866
	C1185.071289,1376.968140 1189.632080,1363.778076 1202.650635,1354.253540
	C1214.793945,1345.369507 1227.987061,1344.494019 1242.668213,1350.744507
	C1240.779175,1354.493408 1239.312622,1357.959106 1237.278809,1361.052124
	C1236.765259,1361.833008 1234.439209,1361.541260 1232.946411,1361.537842
	C1228.053101,1361.526489 1222.913696,1360.421753 1218.316772,1361.554443
	C1208.012939,1364.093384 1201.461426,1372.348999 1200.933350,1381.673340
	C1200.305054,1392.769043 1206.323853,1403.199829 1215.709839,1407.281494
	C1231.310059,1414.065674 1250.769775,1401.109375 1249.132080,1383.852783
	C1244.012085,1385.527100 1239.120972,1387.265137 1234.141602,1388.695312
	C1231.729980,1389.387817 1227.534180,1390.572632 1226.946777,1389.683838
	C1225.003296,1386.743164 1224.217773,1382.990479 1223.300049,1379.468140
	C1223.158325,1378.924438 1224.517822,1377.548584 1225.416504,1377.242310
	C1235.340820,1373.859985 1245.277466,1370.500244 1255.316284,1367.486084
	C1256.453491,1367.144531 1259.008545,1368.583130 1259.606079,1369.822876
	C1270.260254,1391.925171 1255.006226,1419.289795 1230.598389,1421.964600
	C1227.150879,1422.342407 1223.631836,1422.067993 1219.714111,1422.054443
z"/>
<path class="yellow-color" opacity="1.000000" stroke="none"
	d="
M1315.388916,1335.615845
	C1320.835815,1332.644531 1326.026733,1329.975342 1331.048706,1327.019043
	C1333.764160,1325.420654 1335.337769,1325.513672 1336.900513,1328.575684
	C1342.242188,1339.041870 1342.546997,1336.238892 1333.279419,1341.504517
	C1326.659180,1345.265747 1319.936401,1348.846313 1312.769775,1352.775879
	C1315.960815,1358.576416 1318.885620,1363.892822 1322.107666,1369.749634
	C1326.359741,1367.448975 1330.128174,1365.417725 1333.889404,1363.373169
	C1341.500488,1359.235962 1349.144897,1355.157837 1356.694702,1350.911621
	C1359.095215,1349.561401 1360.392578,1349.837891 1361.861206,1352.311890
	C1367.022217,1361.005981 1367.116211,1360.951172 1358.417603,1365.685791
	C1346.272949,1372.296509 1334.130249,1378.911011 1321.979370,1385.510010
	C1320.391846,1386.372192 1318.760010,1387.153076 1316.467285,1388.317383
	C1304.588989,1366.519043 1292.840942,1344.959473 1280.884644,1323.018066
	C1282.384644,1322.026001 1283.531860,1321.142700 1284.786987,1320.456421
	C1298.673706,1312.864746 1312.650879,1305.434570 1326.425903,1297.646118
	C1330.039795,1295.602783 1331.733521,1296.319458 1333.229004,1299.822510
	C1334.260986,1302.239990 1335.672974,1304.495361 1337.248901,1307.448608
	C1324.611572,1314.380249 1312.285278,1321.141113 1299.455688,1328.178223
	C1301.714233,1332.360962 1303.731689,1336.097168 1306.114990,1340.510742
	C1309.319946,1338.822876 1312.191284,1337.310669 1315.388916,1335.615845
z"/>
<path class="yellow-color" opacity="1.000000" stroke="none"
	d="
M845.573792,1389.596191
	C843.902832,1394.899048 842.370544,1399.802368 840.593872,1405.487671
	C854.301025,1409.822266 867.676636,1414.052002 881.748535,1418.501953
	C880.587585,1422.294922 879.687378,1425.786499 878.380005,1429.118408
	C878.055664,1429.945190 876.203125,1430.943115 875.407349,1430.700439
	C858.261414,1425.471680 841.165710,1420.077881 823.786072,1414.630005
	C824.158813,1412.905151 824.335815,1411.613770 824.718445,1410.386475
	C831.257324,1389.411011 837.914856,1368.471558 844.294006,1347.447876
	C845.432861,1343.694702 846.995239,1343.339722 850.384583,1344.438721
	C865.417786,1349.313110 880.492737,1354.067017 895.631287,1358.601929
	C899.257507,1359.688232 900.204834,1361.197266 898.732666,1364.633789
	C897.638062,1367.189087 896.924866,1369.907715 895.873779,1373.056885
	C885.359131,1369.775757 875.236145,1366.625854 865.119080,1363.457275
	C854.257812,1360.055786 854.256714,1360.047363 851.318420,1371.287109
	C851.154968,1371.912354 851.123230,1372.572021 850.928223,1373.920776
	C860.867554,1377.069214 870.788635,1380.211914 881.643433,1383.650391
	C880.489014,1387.354980 879.630249,1391.030273 878.093994,1394.396118
	C877.709290,1395.238892 874.977051,1395.681885 873.611877,1395.294312
	C865.932556,1393.113525 858.374756,1390.503662 850.690491,1388.342773
	C849.226868,1387.931152 847.381653,1388.876831 845.573792,1389.596191
z"/>
<path class="yellow-color" opacity="1.000000" stroke="none"
	d="
M1519.790527,1152.050293
	C1512.290039,1147.385254 1505.101685,1142.908569 1497.325806,1138.065918
	C1507.368530,1121.888306 1517.162964,1106.110718 1527.333618,1089.727051
	C1530.720337,1091.802124 1534.001343,1093.422852 1536.717407,1095.713501
	C1537.534546,1096.402710 1537.402222,1099.325928 1536.646484,1100.595825
	C1531.022827,1110.045776 1525.125732,1119.332886 1519.333252,1128.682739
	C1518.389893,1130.205322 1517.539062,1131.785278 1516.407227,1133.753052
	C1520.394165,1136.226318 1524.025269,1138.478882 1528.285400,1141.121704
	C1534.078613,1131.854614 1539.677856,1122.897705 1545.610718,1113.407227
	C1549.578247,1115.877075 1553.156372,1118.104492 1557.228271,1120.639404
	C1551.415405,1130.023926 1545.920654,1138.894897 1540.066406,1148.346313
	C1545.682129,1151.863525 1550.948853,1155.162109 1556.572510,1158.684204
	C1564.222900,1146.384155 1571.594238,1134.532471 1579.372192,1122.027344
	C1582.860474,1124.169678 1586.144409,1126.002930 1589.169556,1128.193726
	C1589.800903,1128.650879 1590.002808,1130.750610 1589.513916,1131.549927
	C1580.221436,1146.744263 1570.795166,1161.856934 1561.001953,1177.621948
	C1547.157104,1169.029297 1533.630005,1160.634033 1519.790527,1152.050293
z"/>
<path class="yellow-color" opacity="1.000000" stroke="none"
	d="
M568.017883,1132.119141
	C570.049072,1130.649292 571.792908,1129.391113 574.238708,1127.626587
	C585.474976,1142.857056 596.573853,1157.901245 608.033264,1173.434204
	C604.304626,1176.185303 601.001587,1178.622314 597.063293,1181.527954
	C592.683167,1175.660522 588.430969,1169.990112 584.206787,1164.298828
	C580.044434,1158.690796 575.910522,1153.061646 571.315430,1146.833740
	C567.517151,1149.630005 563.984375,1152.230713 559.906799,1155.232544
	C566.404236,1164.082275 572.656128,1172.597534 579.210571,1181.524780
	C575.495605,1184.282837 572.194336,1186.733765 568.225159,1189.680542
	C561.771423,1180.976074 555.480530,1172.491211 548.789246,1163.466309
	C543.619568,1167.240723 538.719543,1170.818115 533.102173,1174.919434
	C541.592346,1186.458374 549.921265,1197.778076 558.698364,1209.707031
	C555.112000,1212.391357 551.737671,1214.917114 547.708923,1217.932617
	C536.446411,1202.669189 525.423462,1187.730347 513.853455,1172.050171
	C531.948242,1158.710327 549.839355,1145.520508 568.017883,1132.119141
z"/>
<path class="yellow-color" opacity="1.000000" stroke="none"
	d="
M1079.382812,1431.642090
	C1068.486572,1413.660645 1071.700439,1392.781372 1087.014648,1380.461426
	C1101.417603,1368.874268 1123.163818,1369.737549 1136.562256,1382.428467
	C1152.623535,1397.641602 1152.289062,1423.863281 1135.846680,1438.523193
	C1118.961914,1453.577759 1093.728760,1450.625366 1079.382812,1431.642090
M1112.357544,1385.923828
	C1105.261230,1385.769409 1098.818481,1387.586792 1093.522705,1392.493042
	C1085.386108,1400.030884 1083.963745,1412.943359 1090.025879,1423.294556
	C1095.711914,1433.003662 1107.237671,1436.926025 1118.795898,1433.085938
	C1129.538330,1429.516968 1136.019043,1419.493652 1134.812866,1408.313354
	C1133.419312,1395.395142 1125.739380,1387.440796 1112.357544,1385.923828
z"/>
<path class="yellow-color" opacity="1.000000" stroke="none"
	d="
M1481.920410,1188.039551
	C1477.318481,1183.963745 1472.986572,1180.119141 1468.220337,1175.889038
	C1471.265381,1172.463989 1473.974731,1169.416626 1477.172974,1165.819336
	C1495.845215,1182.325195 1514.223267,1198.571167 1533.119141,1215.274780
	C1530.015625,1218.763672 1527.224731,1221.901245 1524.219360,1225.280029
	C1516.305176,1218.438110 1508.824585,1211.970947 1501.103882,1205.296265
	C1492.980957,1214.492798 1485.413208,1223.060791 1477.424927,1232.104858
	C1485.017578,1238.904175 1492.390625,1245.506714 1500.181519,1252.483643
	C1497.207031,1255.848145 1494.496948,1258.913574 1491.297241,1262.532959
	C1472.659790,1246.058594 1454.277710,1229.810181 1435.366943,1213.094360
	C1438.399292,1209.654785 1441.181519,1206.498901 1444.296997,1202.965210
	C1452.006958,1209.765625 1459.325195,1216.220459 1467.225952,1223.189087
	C1475.212158,1214.148560 1482.956787,1205.381348 1491.009399,1196.265625
	C1487.802856,1193.358765 1484.996704,1190.814819 1481.920410,1188.039551
z"/>
<path class="yellow-color" opacity="1.000000" stroke="none"
	d="
M693.386719,1256.615112
	C696.924561,1258.661377 697.427002,1261.001587 696.299622,1264.703491
	C689.472229,1287.120361 682.952148,1309.630737 676.312561,1332.105103
	C675.859680,1333.638062 675.269043,1335.130249 674.492676,1337.358032
	C670.978699,1334.559204 667.653503,1332.516357 665.221680,1329.701782
	C664.113403,1328.419067 664.018250,1325.287720 664.765198,1323.556519
	C667.086670,1318.176025 665.700867,1314.834106 660.922913,1311.529175
	C654.098389,1306.808350 647.931091,1301.146729 641.255066,1296.194458
	C639.887024,1295.179688 637.147461,1294.706299 635.660828,1295.371094
	C626.130676,1299.633301 624.062378,1299.240967 616.616272,1290.303101
	C618.190857,1289.351318 619.683777,1288.390503 621.229309,1287.523682
	C640.379272,1276.781128 659.500671,1265.986938 678.708130,1255.348022
	C687.958252,1250.224609 684.804626,1249.999756 693.386719,1256.615112
M671.546387,1299.939819
	C674.346008,1290.486450 677.145691,1281.032959 680.389282,1270.080566
	C669.975769,1275.931641 660.971497,1280.990845 651.206421,1286.477661
	C657.738647,1291.637573 663.551758,1296.255615 669.423157,1300.798340
	C669.750916,1301.052002 670.559692,1300.684082 671.546387,1299.939819
z"/>
<path class="yellow-color" opacity="1.000000" stroke="none"
	d="
M1408.408813,1275.516602
	C1417.804443,1287.389282 1426.976196,1298.984863 1436.544434,1311.081787
	C1433.465088,1313.593872 1430.874878,1316.197144 1427.795166,1317.930298
	C1426.830688,1318.473145 1423.977173,1317.134766 1422.955933,1315.873779
	C1412.376587,1302.811890 1402.000000,1289.585938 1391.553101,1276.416626
	C1390.438599,1275.011719 1389.235962,1273.676514 1387.746216,1271.922729
	C1380.964233,1277.241699 1374.479370,1282.327759 1367.635132,1287.695435
	C1364.734985,1284.083374 1362.165039,1280.882690 1359.071899,1277.030273
	C1376.167480,1263.488159 1393.033203,1250.128296 1410.369141,1236.395874
	C1413.241699,1240.010986 1415.794189,1243.223022 1418.818970,1247.029663
	C1412.169312,1252.426514 1405.665894,1257.704590 1398.782959,1263.290771
	C1402.068970,1267.466797 1405.126953,1271.353027 1408.408813,1275.516602
z"/>
<path class="yellow-color" opacity="1.000000" stroke="none"
	d="
M1018.064270,1390.991943
	C1016.912781,1404.278564 1016.112915,1417.234131 1015.346863,1430.191772
	C1014.936523,1437.132202 1014.584473,1444.076294 1014.211914,1450.912109
	C1009.670898,1450.912109 1005.716187,1450.912109 1001.091492,1450.912109
	C1001.091492,1448.811279 1001.022339,1447.069214 1001.102234,1445.333984
	C1001.884338,1428.359131 1002.570007,1411.378296 1003.583557,1394.416992
	C1003.812195,1390.590454 1002.615723,1389.420654 998.991089,1389.345337
	C992.209656,1389.204224 985.435303,1388.724609 978.706177,1388.388184
	C978.706177,1383.660278 978.706177,1379.595093 978.706177,1374.863525
	C1000.475647,1375.953369 1021.714905,1377.016724 1043.231445,1378.093872
	C1043.231445,1382.613037 1043.231445,1386.808228 1043.231445,1390.661621
	C1034.618164,1390.661621 1026.524048,1390.661621 1018.064270,1390.991943
z"/>
</svg>
